<?xml version="1.0" standalone="no"?>
<!DOCTYPE svg PUBLIC "-//W3C//DTD SVG 20010904//EN"
 "http://www.w3.org/TR/2001/REC-SVG-20010904/DTD/svg10.dtd">
<svg version="1.0" xmlns="http://www.w3.org/2000/svg"
 width="140.000000pt" height="140.000000pt" viewBox="0 0 140.000000 140.000000"
 preserveAspectRatio="xMidYMid meet">
<metadata>
Created by potrace 1.14, written by Peter Selinger 2001-2017
</metadata>
<g transform="translate(0.000000,140.000000) scale(0.100000,-0.100000)"
fill="#000000" stroke="none">
<path d="M820 1383 c0 -5 -11 -9 -25 -9 -14 -1 -33 -5 -43 -9 -9 -5 -21 -9
-27 -10 -5 -2 -30 -9 -55 -16 -25 -7 -49 -12 -54 -10 -4 1 -14 -4 -22 -10 -8
-6 -14 -9 -14 -5 0 3 -12 1 -27 -5 -26 -10 -37 -13 -81 -23 -9 -2 -37 -9 -62
-16 -25 -7 -51 -13 -57 -13 -7 0 -13 -5 -13 -10 0 -6 -3 -7 -7 -4 -3 4 -13 1
-21 -6 -12 -9 -14 -9 -9 0 6 9 -2 8 -26 -2 -19 -8 -37 -11 -41 -8 -3 4 -6 1
-6 -5 0 -6 -8 -11 -17 -11 -17 0 -58 -8 -58 -11 0 -1 -8 -3 -18 -6 -9 -2 -25
-6 -35 -8 -9 -3 -17 -5 -17 -6 0 -1 -9 -3 -19 -5 -10 -2 -25 -10 -32 -17 -18
-18 -26 -83 -14 -114 5 -13 12 -35 14 -47 2 -12 9 -42 16 -67 7 -25 12 -47 12
-50 1 -3 9 -29 19 -57 10 -29 16 -53 14 -53 -2 0 2 -18 10 -40 8 -22 14 -42
15 -45 0 -3 0 -6 1 -7 0 -2 2 -10 4 -18 7 -26 14 -53 31 -115 9 -33 17 -64 19
-70 1 -5 4 -17 8 -25 8 -22 38 -139 43 -168 3 -14 7 -29 10 -34 3 -4 7 -17 10
-28 10 -45 13 -56 24 -85 6 -16 11 -31 11 -33 -1 -1 1 -13 5 -26 9 -36 44 -37
163 -4 205 58 241 66 234 54 -20 -31 -22 -111 -4 -111 8 0 15 9 17 20 8 70 30
114 60 121 14 4 29 2 33 -3 7 -10 92 -70 103 -72 8 -2 15 -4 68 -21 36 -12
111 -10 135 3 11 6 29 12 40 14 11 2 22 8 23 13 2 6 7 8 12 5 4 -3 13 2 20 10
7 8 19 15 26 15 8 0 14 4 14 9 0 5 16 16 35 25 38 18 54 36 31 36 -8 0 -16 4
-18 8 -1 4 -39 26 -83 47 -66 33 -80 44 -79 63 2 28 5 32 39 38 58 10 111 54
127 104 10 31 -58 78 -124 85 -18 2 -36 4 -39 4 -5 1 -29 69 -29 83 0 2 33 3
73 2 41 -1 83 4 97 11 23 12 80 69 80 80 0 3 11 28 24 55 l24 50 -68 -4 c-117
-6 -190 -45 -222 -118 -15 -33 -28 -19 -28 30 0 28 9 42 49 78 44 40 65 75 78
134 2 8 6 43 8 77 l4 63 -32 -16 c-18 -9 -40 -23 -49 -32 -10 -8 -18 -11 -18
-7 0 15 -61 -59 -66 -80 -10 -41 -11 -60 -3 -94 4 -18 4 -30 0 -25 -5 5 -41
131 -81 279 -40 149 -78 273 -84 277 -14 10 -56 10 -56 1z m237 -625 c-3 -8
-6 -5 -6 6 -1 11 2 17 5 13 3 -3 4 -12 1 -19z"/>
</g>
</svg>
